<svg id="Capa_1" enable-background="new 0 0 510 510" height="512" viewBox="0 0 510 510" width="512" xmlns="http://www.w3.org/2000/svg"><g><path d="m420 82.59v259.91h-210v-300h169.91c22.11 0 40.09 17.98 40.09 40.09z" fill="#b40042"/><path d="m210 42.5v300h-169.91c-22.11 0-40.09-17.98-40.09-40.09v-219.82c0-22.11 17.98-40.09 40.09-40.09z" fill="#ff415b"/><path d="m127.346 132.5h-39.692c-15.249 0-27.654 12.405-27.654 27.654v34.692c0 15.249 12.405 27.654 27.654 27.654h39.692c15.249 0 27.654-12.405 27.654-27.654v-34.692c0-15.249-12.405-27.654-27.654-27.654z" fill="#fd5"/><path d="m60 252.5h60v30h-60z" fill="#ff8859"/><path d="m150 252.5h60v30h-60z" fill="#ff8859"/><path d="m240 252.5h60v30h-60z" fill="#ff415b"/><path d="m480 236.07v31.43h-30v-31.43c0-27.57-22.43-50-50-50l-6.341-13.57 6.341-16.43c44.11 0 80 35.89 80 80z" fill="#b4d2d7"/><path d="m400 156.07v30c-27.57 0-50 22.43-50 50v31.43h-30v-31.43c0-44.11 35.89-80 80-80z" fill="#e1ebf0"/><path d="m510 252.5v105c0 60.65-49.35 110-110 110v-215z" fill="#ffda44"/><path d="m400 252.5v215c-60.65 0-110-49.35-110-110v-105z" fill="#fff68e"/><path d="m450.03 338.65-50.03 45.03-6.341-20.57 6.341-19.79 29.97-26.97z" fill="#ff9f22"/><path d="m400 343.32v40.36l-10.54 9.49-40.07-40.06 21.22-21.22 19.93 19.94z" fill="#ffda44"/></g></svg>